<?xml version="1.0" encoding="UTF-8" standalone="no"?>
<!-- Created with Inkscape (http://www.inkscape.org/) -->

<svg
   width="100mm"
   height="100mm"
   viewBox="0 0 100 100"
   version="1.1"
   id="svg135"
   inkscape:export-filename="saw2.svg"
   inkscape:export-xdpi="25.4"
   inkscape:export-ydpi="25.4"
   xmlns:inkscape="http://www.inkscape.org/namespaces/inkscape"
   xmlns:sodipodi="http://sodipodi.sourceforge.net/DTD/sodipodi-0.dtd"
   xmlns="http://www.w3.org/2000/svg"
   xmlns:svg="http://www.w3.org/2000/svg">
  <sodipodi:namedview
     id="namedview137"
     pagecolor="#ffffff"
     bordercolor="#666666"
     borderopacity="1.0"
     inkscape:showpageshadow="2"
     inkscape:pageopacity="0.0"
     inkscape:pagecheckerboard="0"
     inkscape:deskcolor="#d1d1d1"
     inkscape:document-units="mm"
     showgrid="false" />
  <defs
     id="defs132" />
  <g
     inkscape:label="Layer 1"
     inkscape:groupmode="layer"
     id="layer1">
    <path
       d="m 49.999967,59.875402 c -5.981421,0 -10.830282,-4.783107 -10.830282,-10.68297 0,-5.899859 4.848861,-10.682971 10.830282,-10.682971 5.981531,0 10.830392,4.783112 10.830392,10.682971 0,5.899863 -4.848861,10.68297 -10.830392,10.68297 z M 90.551165,53.291418 H 100 L 90.512608,46.224043 C 90.08826,41.279418 88.838018,36.580525 86.906275,32.276189 l 7.558219,-5.444162 -10.156936,0.537609 c -2.85241,-4.625057 -6.553737,-8.63521 -10.87655,-11.795108 L 77.256386,7.5784497 68.503579,12.488464 C 63.924168,10.062298 58.841955,8.5094605 53.461793,8.0399172 L 52.827901,0 47.552009,7.9637752 C 42.794233,8.2568068 38.256617,9.3954779 34.07775,11.237887 l -1.466383,0.191509 -4.211839,-7.3292575 -1.44403,11.0556075 -0.0095,0.146516 c -3.816547,2.723812 -7.1617,6.104061 -9.88257,9.985002 L 8.4236108,21.367097 13.369032,31.675128 c -1.989635,4.255885 -3.30749,8.910937 -3.8118556,13.817489 L 0,45.589524 9.3804853,52.191973 c 0.2656498,5.364557 1.5008037,10.462618 3.5275417,15.111905 l -6.4097907,5.242269 9.7400787,0.946009 c 2.742998,4.21666 6.203709,7.892248 10.200971,10.838716 l -3.575262,7.842642 8.659151,-4.648133 c 4.704916,2.488465 9.939456,4.055146 15.482226,4.472773 L 47.172143,100 52.477202,92.03392 C 57.870885,91.6982 62.981261,90.274572 67.60616,87.971851 l 4.11472,7.80457 0.943575,-10.804107 c 4.310075,-2.999541 8.034984,-6.832025 10.960817,-11.272498 l 7.590184,4.437009 -4.322816,-10.381864 c 2.0026,-4.453163 3.275082,-9.329717 3.658525,-14.463543"
       style="fill:#231f20;fill-opacity:1;fill-rule:nonzero;stroke:none;stroke-width:0.0113548"
       id="path20" />
  </g>
</svg>
