<?xml version="1.0" encoding="UTF-8" standalone="no"?>
<!-- Created with Inkscape (http://www.inkscape.org/) -->

<svg
   width="100mm"
   height="100mm"
   viewBox="0 0 100 100"
   version="1.1"
   id="svg135"
   inkscape:export-filename="saw4.svg"
   inkscape:export-xdpi="25.4"
   inkscape:export-ydpi="25.4"
   xmlns:inkscape="http://www.inkscape.org/namespaces/inkscape"
   xmlns:sodipodi="http://sodipodi.sourceforge.net/DTD/sodipodi-0.dtd"
   xmlns="http://www.w3.org/2000/svg"
   xmlns:svg="http://www.w3.org/2000/svg">
  <sodipodi:namedview
     id="namedview137"
     pagecolor="#ffffff"
     bordercolor="#666666"
     borderopacity="1.0"
     inkscape:showpageshadow="2"
     inkscape:pageopacity="0.0"
     inkscape:pagecheckerboard="0"
     inkscape:deskcolor="#d1d1d1"
     inkscape:document-units="mm"
     showgrid="false" />
  <defs
     id="defs132" />
  <g
     inkscape:label="Layer 1"
     inkscape:groupmode="layer"
     id="layer1">
    <path
       d="m 50,59.428281 c -5.029716,0 -9.108529,-4.220465 -9.108529,-9.428279 0,-5.206508 4.078813,-9.428279 9.108529,-9.428279 5.031009,0 9.108525,4.221771 9.108525,9.428279 0,5.207814 -4.077516,9.428279 -9.108525,9.428279 z M 95.865633,51.418171 100,55.739467 c 0,0 -6.459948,-9.952072 -8.010338,-13.618626 -1.550386,-3.666553 2.454781,-3.011812 2.454781,-3.011812 l 4.780362,3.011812 c 0,0 -7.105943,-6.547418 -10.594315,-10.213971 -3.488372,-3.666553 1.679586,-4.321295 1.679586,-4.321295 l 5.038762,1.702329 c 0,0 -6.847548,-4.190347 -11.49871,-6.023624 -4.651163,-1.833276 -1.808786,-5.237932 -1.808786,-5.237932 h 7.105943 c 0,0 -7.751935,-1.702329 -13.049092,-2.357071 -5.297158,-0.654742 -3.100777,-4.845089 -3.100777,-4.845089 l 6.201549,-1.8332756 c 0,0 -5.555553,0.2618964 -12.403101,0.5237933 C 59.94832,9.7766021 62.532301,5.9791006 62.532301,5.9791006 l 5.297157,-3.2737082 c 0,0 -7.364342,2.2261217 -12.7907,4.0593983 C 49.612404,8.5980672 51.162791,3.8839273 51.162791,3.8839273 L 55.038758,0 c 0,0 -3.229972,1.6578059 -9.68992,5.9791006 -6.459949,4.3226044 -6.201553,0 -6.201553,0 L 42.764857,0 c 0,0 -4.521963,4.0148756 -8.914728,9.5147057 -4.392765,5.4998293 -5.555556,0 -5.555556,0 l 1.29199,-5.7617265 c 0,0 -3.359173,6.1545713 -6.072351,11.6544008 -2.713179,5.499831 -4.780362,1.964226 -4.780362,1.964226 v -7.333107 c 0,0 -2.196382,10.606815 -2.842377,14.797162 -0.645995,4.190346 -4.909561,1.964224 -4.909561,1.964224 L 9.5607233,20.12152 c 0,0 0.7751937,12.832936 0.5167957,15.844749 -0.2583976,3.011811 -3.7467698,1.440433 -3.7467698,1.440433 l -2.971576,-5.892677 c 0,0 3.4883718,10.86871 4.3927647,14.928108 0.9043929,4.059401 -2.971576,2.618968 -2.971576,2.618968 L 0,44.346962 c 0,0 6.2015505,9.166384 8.2687337,12.701988 2.0671833,3.535605 -1.9379845,4.583191 -1.9379845,4.583191 L 0.64599483,57.572744 c 0,0 8.01033597,8.642588 11.36950917,10.868708 3.359173,2.226124 -0.516796,3.535605 -0.516796,3.535605 L 4.134367,70.405679 c 0,0 11.111111,5.630779 13.565891,6.94026 2.454781,1.309484 0.387597,4.190347 0.387597,4.190347 l -6.718346,0.392847 c 0,0 13.049095,2.880863 14.98708,3.404655 1.937984,0.523794 0.775194,3.797504 0.775194,3.797504 l -6.33075,2.095171 c 0,0 12.661499,-1.047586 15.503876,-1.178535 2.842376,-0.130949 1.679586,3.535604 1.679586,3.535604 l -5.684754,3.404657 c 0,0 11.498707,-3.666551 15.245478,-4.714141 3.746771,-1.047585 1.808786,3.797503 1.808786,3.797503 L 45.219638,100 c 0,0 9.173125,-6.023624 12.532301,-7.856897 3.359172,-1.833277 3.488371,2.618964 3.488371,2.618964 L 57.881138,100 c 0,0 6.847544,-7.856897 9.94832,-10.868708 3.100773,-3.011813 4.392763,0.654742 4.392763,0.654742 l -0.775195,2.749913 -1.03359,3.797503 c 0,0 4.392766,-9.166385 6.201552,-12.963887 1.808786,-3.7975 4.909558,-0.392844 4.909558,-0.392844 l -0.387595,6.809315 c 0,0 2.58398,-10.868713 3.359172,-15.190009 0.775195,-4.321296 4.651162,-0.785691 4.651162,-0.785691 l 1.162791,6.285522 c 0,0 -0.258396,-6.547417 -0.387596,-15.190009 -0.1292,-8.642587 6.718348,2.749918 6.718348,2.749918 0,0 -2.84238,-8.380693 -4.392767,-13.618626 -1.550386,-5.237936 3.617572,-2.618968 3.617572,-2.618968"
       style="fill:#231f20;fill-opacity:1;fill-rule:nonzero;stroke:none;stroke-width:0.0130071"
       id="path24" />
  </g>
</svg>
