<?xml version="1.0" encoding="UTF-8" standalone="no"?>
<!-- Created with Inkscape (http://www.inkscape.org/) -->

<svg
   width="100mm"
   height="100mm"
   viewBox="0 0 100 100"
   version="1.1"
   id="svg135"
   inkscape:export-filename="bitmap.svg"
   inkscape:export-xdpi="25.4"
   inkscape:export-ydpi="25.4"
   sodipodi:docname="saw1.svg"
   inkscape:version="1.2.1 (9c6d41e410, 2022-07-14, custom)"
   xmlns:inkscape="http://www.inkscape.org/namespaces/inkscape"
   xmlns:sodipodi="http://sodipodi.sourceforge.net/DTD/sodipodi-0.dtd"
   xmlns="http://www.w3.org/2000/svg"
   xmlns:svg="http://www.w3.org/2000/svg">
  <sodipodi:namedview
     id="namedview137"
     pagecolor="#ffffff"
     bordercolor="#666666"
     borderopacity="1.0"
     inkscape:showpageshadow="2"
     inkscape:pageopacity="0.0"
     inkscape:pagecheckerboard="0"
     inkscape:deskcolor="#d1d1d1"
     inkscape:document-units="mm"
     showgrid="false"
     inkscape:zoom="1.4340417"
     inkscape:cx="133.18999"
     inkscape:cy="154.80722"
     inkscape:window-width="1366"
     inkscape:window-height="717"
     inkscape:window-x="0"
     inkscape:window-y="27"
     inkscape:window-maximized="1"
     inkscape:current-layer="layer1" />
  <defs
     id="defs132" />
  <g
     inkscape:label="Layer 1"
     inkscape:groupmode="layer"
     id="layer1">
    <path
       id="path16"
       style="fill:#000000;fill-opacity:1;fill-rule:nonzero;stroke:none;stroke-width:0.0131391"
       d="M 51.369474 0 C 51.369474 0 42.420965 2.8620382e-05 29.643669 4.8498332 C 16.866372 9.6996376 10.861353 21.383191 10.861353 21.383191 L 19.160588 23.368599 L 1.0314616 44.972449 C 1.0314616 44.972449 -2.6813448 53.349333 3.9806356 68.781848 C 10.642616 84.213047 21.344434 90.716943 21.344434 90.716943 L 24.838794 80.906173 L 43.404586 98.873035 C 43.404586 98.873035 43.404738 99.313965 46.134135 99.865739 C 48.86484 100.41619 59.895052 99.093693 59.895052 99.093693 C 59.895052 99.093693 66.447147 98.652933 76.603593 92.150448 C 86.758733 85.646638 91.127771 77.710502 91.127771 77.710502 L 82.063725 74.844527 C 82.063725 74.844527 85.12134 72.088433 88.507259 69.332202 C 91.891866 66.577289 99.864189 54.121244 99.864189 54.121244 C 99.864189 54.121244 101.28297 40.674059 94.949243 27.997774 C 88.615522 15.321488 79.00603 8.7085124 79.00603 8.7085124 L 76.493522 18.517216 C 76.493522 18.517216 70.706515 11.794448 67.64755 8.928654 C 64.589892 6.0628603 55.853955 0 55.853955 0 L 51.369474 0 z M 50.000049 42.00002 A 8 8 0 0 1 58.000077 50.000049 A 8 8 0 0 1 50.000049 58.000077 A 8 8 0 0 1 42.00002 50.000049 A 8 8 0 0 1 50.000049 42.00002 z " />
  </g>
</svg>
