<?xml version="1.0" encoding="UTF-8" standalone="no"?>
<!-- Created with Inkscape (http://www.inkscape.org/) -->

<svg
   width="100mm"
   height="100mm"
   viewBox="0 0 100 100"
   version="1.1"
   id="svg135"
   inkscape:export-filename="saw1.svg"
   inkscape:export-xdpi="25.4"
   inkscape:export-ydpi="25.4"
   sodipodi:docname="saw2.svg"
   inkscape:version="1.2.1 (9c6d41e410, 2022-07-14, custom)"
   xmlns:inkscape="http://www.inkscape.org/namespaces/inkscape"
   xmlns:sodipodi="http://sodipodi.sourceforge.net/DTD/sodipodi-0.dtd"
   xmlns="http://www.w3.org/2000/svg"
   xmlns:svg="http://www.w3.org/2000/svg">
  <sodipodi:namedview
     id="namedview137"
     pagecolor="#ffffff"
     bordercolor="#666666"
     borderopacity="1.0"
     inkscape:showpageshadow="2"
     inkscape:pageopacity="0.0"
     inkscape:pagecheckerboard="0"
     inkscape:deskcolor="#d1d1d1"
     inkscape:document-units="mm"
     showgrid="false"
     inkscape:zoom="1.4340417"
     inkscape:cx="188.97638"
     inkscape:cy="188.97638"
     inkscape:window-width="1366"
     inkscape:window-height="717"
     inkscape:window-x="0"
     inkscape:window-y="27"
     inkscape:window-maximized="1"
     inkscape:current-layer="layer1" />
  <defs
     id="defs132" />
  <g
     inkscape:label="Layer 1"
     inkscape:groupmode="layer"
     id="layer1">
    <path
       d="m 49.999998,57.54969 c -4.145863,0 -7.505806,-3.379867 -7.505806,-7.549068 0,-4.170449 3.359943,-7.550316 7.505806,-7.550316 4.144631,0 7.50581,3.379867 7.50581,7.550316 0,4.169201 -3.361179,7.549068 -7.50581,7.549068 z M 96.481882,50.298953 H 100 l -3.875244,-7.370069 2.680296,-0.628986 -4.378183,-5.931854 2.948446,-1.527715 -5.539766,-5.752856 2.055013,-1.706714 -6.07607,-4.314642 2.502348,-2.2462 -7.415601,-2.965928 c 0,0 2.59132,-2.517185 2.59132,-2.786928 0,-0.269742 -7.594779,-2.515942 -7.594779,-2.515942 L 79.416489,9.5851907 71.107458,8.6864636 72.269041,5.8597567 H 64.763235 L 65.299539,2.484863 57.526815,3.7428336 V 0.50716501 L 49.999998,3.4730936 49.57491,0 42.516435,3.5625934 41.891155,0.7769086 35.795315,5.0679327 34.544756,2.3717477 29.003757,8.5733449 27.037713,5.4271727 22.748506,11.719517 21.072859,9.4049471 17.319956,16.864518 14.907813,14.527576 12.584647,22.437132 9.4570195,20.639675 8.7427711,28.368988 5.7053527,27.470259 5.9735063,35.379814 2.7569067,34.570586 3.6503399,42.659141 0.79086622,42.299898 3.2932139,50.000622 H 0 l 3.8282846,7.218415 -2.94844601,0.809231 4.91448651,6.201597 -3.2165996,1.797457 5.8079197,5.122627 -2.7705013,1.977701 6.1650461,4.31464 -1.964808,2.1567 6.968266,3.505413 -1.696654,2.696185 7.504574,1.797457 -1.429737,3.144929 7.505807,0.539484 -1.072611,3.235671 7.951905,0.180245 -0.536304,2.876428 7.237653,-1.528958 v 3.415912 l 7.751717,-2.336942 V 100 l 6.99051,-4.043656 0.625279,3.235672 6.254015,-4.493642 1.250555,2.876428 5.718948,-5.663358 1.607681,2.427686 4.378183,-6.022598 2.055013,2.157942 3.663931,-7.010828 2.501115,1.977702 1.96604,-7.550315 3.037418,1.886957 1.250556,-8.267554 2.770501,1.34747 0.08897,-8.358298 2.769264,1.34747 -0.982402,-7.81881 h 2.948446 l -2.412142,-7.729315"
       style="fill:#000000;fill-opacity:1;fill-rule:nonzero;stroke:none;stroke-width:0.0123939"
       id="path18" />
  </g>
</svg>
