<?xml version="1.0" encoding="UTF-8" standalone="no"?>
<!-- Created with Inkscape (http://www.inkscape.org/) -->

<svg
   width="100mm"
   height="100mm"
   viewBox="0 0 100 100"
   version="1.1"
   id="svg135"
   inkscape:export-filename="saw2.svg"
   inkscape:export-xdpi="25.4"
   inkscape:export-ydpi="25.4"
   sodipodi:docname="saw3.svg"
   inkscape:version="1.2.1 (9c6d41e410, 2022-07-14, custom)"
   xmlns:inkscape="http://www.inkscape.org/namespaces/inkscape"
   xmlns:sodipodi="http://sodipodi.sourceforge.net/DTD/sodipodi-0.dtd"
   xmlns="http://www.w3.org/2000/svg"
   xmlns:svg="http://www.w3.org/2000/svg">
  <sodipodi:namedview
     id="namedview137"
     pagecolor="#ffffff"
     bordercolor="#666666"
     borderopacity="1.0"
     inkscape:showpageshadow="2"
     inkscape:pageopacity="0.0"
     inkscape:pagecheckerboard="0"
     inkscape:deskcolor="#d1d1d1"
     inkscape:document-units="mm"
     showgrid="false"
     inkscape:zoom="1.4340417"
     inkscape:cx="133.18999"
     inkscape:cy="188.97638"
     inkscape:window-width="1366"
     inkscape:window-height="717"
     inkscape:window-x="0"
     inkscape:window-y="27"
     inkscape:window-maximized="1"
     inkscape:current-layer="layer1" />
  <defs
     id="defs132" />
  <g
     inkscape:label="Layer 1"
     inkscape:groupmode="layer"
     id="layer1">
    <path
       id="path20"
       style="fill:#000000;fill-opacity:1;fill-rule:nonzero;stroke:none;stroke-width:0.0113548"
       d="M 52.827783 0 L 47.552136 7.963855 C 42.794365 8.2568863 38.256369 9.3956665 34.077507 11.238074 L 32.611446 11.429277 L 28.3993 4.1000081 L 26.955461 15.155664 L 26.946159 15.302425 C 23.129616 18.026234 19.784425 21.406408 17.063558 25.287345 L 8.4237752 21.367171 L 13.36921 31.675069 C 11.379577 35.93095 10.061404 40.586283 9.5570394 45.49283 L 0 45.589465 L 9.380306 52.192163 C 9.6459555 57.556715 10.88152 62.65462 12.908256 67.303902 L 6.4983114 72.545959 L 16.238285 73.492155 C 18.981281 77.708811 22.441955 81.384305 26.439213 84.33077 L 22.864237 92.173702 L 31.52314 87.525407 C 36.228052 90.013869 41.462635 91.580376 47.0054 91.998002 L 47.172314 100.0001 L 52.477417 92.034176 C 57.871095 91.698456 62.981315 90.27461 67.606209 87.971891 L 71.720687 95.776583 L 72.664299 84.972074 C 76.974369 81.972536 80.699556 78.140363 83.625387 73.699894 L 91.215621 78.136833 L 86.892887 67.755037 C 88.895485 63.301879 90.167619 58.425142 90.551062 53.291321 L 100.0001 53.291321 L 90.512821 46.224052 C 90.088474 41.279432 88.838064 36.580398 86.906323 32.276066 L 94.464518 26.831954 L 84.307515 27.369389 C 81.455108 22.744336 77.753985 18.734655 73.431177 15.57476 L 77.256266 7.5783488 L 68.503829 12.488643 C 63.924423 10.06248 58.84201 8.5093622 53.461853 8.0398193 L 52.827783 0 z M 50.000049 37.999748 A 12 12 0 0 1 61.999833 50.000049 A 12 12 0 0 1 50.000049 61.999833 A 12 12 0 0 1 37.999748 50.000049 A 12 12 0 0 1 50.000049 37.999748 z " />
  </g>
</svg>
