<?xml version="1.0" encoding="UTF-8" standalone="no"?>
<!-- Created with Inkscape (http://www.inkscape.org/) -->

<svg
   width="100mm"
   height="100mm"
   viewBox="0 0 100 100"
   version="1.1"
   id="svg135"
   inkscape:export-filename="saw3.svg"
   inkscape:export-xdpi="25.4"
   inkscape:export-ydpi="25.4"
   xmlns:inkscape="http://www.inkscape.org/namespaces/inkscape"
   xmlns:sodipodi="http://sodipodi.sourceforge.net/DTD/sodipodi-0.dtd"
   xmlns="http://www.w3.org/2000/svg"
   xmlns:svg="http://www.w3.org/2000/svg">
  <sodipodi:namedview
     id="namedview137"
     pagecolor="#ffffff"
     bordercolor="#666666"
     borderopacity="1.0"
     inkscape:showpageshadow="2"
     inkscape:pageopacity="0.0"
     inkscape:pagecheckerboard="0"
     inkscape:deskcolor="#d1d1d1"
     inkscape:document-units="mm"
     showgrid="false" />
  <defs
     id="defs132" />
  <g
     inkscape:label="Layer 1"
     inkscape:groupmode="layer"
     id="layer1">
    <path
       d="m 50.000004,60.192925 c -5.182006,0 -9.383034,-4.174917 -9.383034,-9.324758 0,-5.149838 4.201028,-9.324759 9.383034,-9.324759 5.182129,0 9.383034,4.174921 9.383034,9.324759 0,5.149841 -4.200905,9.324758 -9.383034,9.324758 z M 95.822625,52.926043 99.228798,54.726691 97.300773,49.967843 100,46.430866 92.673523,41.157557 88.17481,41.993569 87.4036,41.02894 l 0.642674,-0.900324 3.598973,-0.321541 2.506424,-3.02251 3.66324,0.707397 -3.534705,-4.115756 1.670955,-3.601286 -10.218512,-3.472669 0.514139,-1.286174 0.06427,-2.186495 4.30591,-0.771705 -4.884317,-2.636655 0.514139,-4.115756 -10.025708,0.51447 -1.478147,2.057877 -0.642674,1.543409 h -1.349616 l -0.385603,-1.221865 1.092545,-1.02894 2.506428,-3.279742 -0.706942,-0.321544 -0.128535,-1.736334 3.020566,-2.3151123 h -4.94859 L 71.850902,4.9517684 63.62468,8.9067521 H 61.953726 L 60.861181,6.9453376 60.668382,4.9517684 62.467868,2.5080386 58.868896,3.4726686 57.197945,3.4083598 55.269923,0 48.650388,6.4308681 V 11.18971 L 47.686375,12.025723 46.593831,11.18971 V 6.1736333 L 44.665813,4.7588422 45.501286,0.96463004 41.323908,3.7942122 37.789203,1.2861736 32.840618,10.482314 29.434448,9.3247587 29.048844,5.5948552 l -2.892031,4.051447 -4.11311,-1.2861736 -0.964011,9.4533764 2.249358,3.086816 0.128534,1.286174 -1.349614,-0.192926 -2.120823,-3.344051 -2.570694,0.643086 -2.313625,-4.051446 -1.349614,4.887459 -4.2416453,0.385852 2.2493573,9.839229 -3.40617,1.736334 -3.2133677,-2.700964 0.4498718,5.016076 c 0,0 -3.5347047,1.672026 -3.8560413,1.864953 -0.3213369,0.192927 5.2699228,8.167202 5.2699228,8.167202 L 11.118252,44.82315 12.14653,45.659164 11.118252,46.430866 6.9408742,45.659164 4.6272496,47.395498 0.64267354,45.594855 2.8920311,50.67524 0,53.569134 7.9691521,59.807074 6.362468,62.958201 H 2.5706942 l 3.1491003,3.665593 -1.4138815,4.115756 9.254499,2.636657 3.534704,-1.993571 h 0.899743 l -0.257069,0.771706 -3.856041,2.379421 -0.385605,2.893891 -3.7275061,0.964629 4.3059131,2.315113 c 0,0 0,3.858522 0,4.244373 0,0.385851 10.347044,-0.385851 10.347044,-0.385851 l 0.449871,3.987138 -3.1491,2.122186 5.141388,0.385854 0.899743,4.180061 9.190233,-3.794211 1.156812,-3.472668 0.899741,-1.028938 0.321339,0.964628 -1.349616,4.308684 1.22108,1.221866 0.128536,1.543406 c 0,0 -1.863754,2.443731 -2.056557,2.829582 -0.1928,0.385851 5.269923,-1.093248 5.269923,-1.093248 L 44.665813,100 52.185089,93.376208 c 0,0 2.827763,1.864949 2.892031,2.057876 0.06427,0.192928 -0.578406,3.922829 -0.578406,3.922829 l 4.048843,-2.829582 3.598972,2.122189 4.370182,-8.29582 -1.542419,-3.601287 0.385607,-1.286175 1.028276,0.385855 1.285348,4.180061 c 0,0 2.699228,0.578778 2.892031,0.578778 0.1928,0 0.257067,4.437302 0.257067,4.437302 l 3.40617,-4.308684 3.66324,1.093247 0.706941,-8.038583 1.028277,-2.122186 3.406169,-0.257237 1.863754,3.472669 1.285348,-5.080385 h 4.305914 l -2.185093,-9.839227 -3.341901,-1.157557 -0.514138,-1.607719 1.542415,0.06431 3.791776,2.186498 0.578406,-1.028942 c 0,0 1.606683,0.06431 2.056553,0.06431 0.449875,0 2.185093,2.250803 2.185093,2.250803 l -0.321339,-4.758843 3.920308,-1.993567 c 0,0 -5.269923,-8.745981 -5.462723,-8.745981 -0.192803,0 3.084834,-2.315116 3.084834,-2.315116"
       style="fill:#231f20;fill-opacity:1;fill-rule:nonzero;stroke:none;stroke-width:0.0128576"
       id="path22" />
  </g>
</svg>
