<?xml version="1.0" encoding="UTF-8" standalone="no"?>
<!-- Created with Inkscape (http://www.inkscape.org/) -->

<svg
   width="100mm"
   height="100mm"
   viewBox="0 0 100 100"
   version="1.1"
   id="svg135"
   inkscape:export-filename="saw3.svg"
   inkscape:export-xdpi="25.4"
   inkscape:export-ydpi="25.4"
   sodipodi:docname="saw4.svg"
   inkscape:version="1.2.1 (9c6d41e410, 2022-07-14, custom)"
   xmlns:inkscape="http://www.inkscape.org/namespaces/inkscape"
   xmlns:sodipodi="http://sodipodi.sourceforge.net/DTD/sodipodi-0.dtd"
   xmlns="http://www.w3.org/2000/svg"
   xmlns:svg="http://www.w3.org/2000/svg">
  <sodipodi:namedview
     id="namedview137"
     pagecolor="#ffffff"
     bordercolor="#666666"
     borderopacity="1.0"
     inkscape:showpageshadow="2"
     inkscape:pageopacity="0.0"
     inkscape:pagecheckerboard="0"
     inkscape:deskcolor="#d1d1d1"
     inkscape:document-units="mm"
     showgrid="false"
     inkscape:zoom="1.4340417"
     inkscape:cx="188.97638"
     inkscape:cy="188.97638"
     inkscape:window-width="1366"
     inkscape:window-height="717"
     inkscape:window-x="0"
     inkscape:window-y="27"
     inkscape:window-maximized="1"
     inkscape:current-layer="layer1" />
  <defs
     id="defs132" />
  <g
     inkscape:label="Layer 1"
     inkscape:groupmode="layer"
     id="layer1">
    <path
       id="path22"
       style="fill:#000000;fill-opacity:1;fill-rule:nonzero;stroke:none;stroke-width:0.0128576"
       d="M 55.270011 0 L 48.65026 6.4306152 L 48.65026 11.189498 L 47.686495 12.025623 L 46.594055 11.189498 L 46.594055 6.1737834 L 44.666007 4.7588826 L 45.501099 0.96479899 L 41.324093 3.7940837 L 37.789425 1.2862264 L 32.840373 10.482564 L 29.434379 9.3250122 L 29.048873 5.5950073 L 26.15706 9.6464396 L 22.043616 8.3602132 L 21.07985 17.813383 L 23.328809 20.900533 L 23.457483 22.186243 L 22.108211 21.99349 L 19.986894 18.649508 L 17.416508 19.292362 L 15.102954 15.24093 L 13.753166 20.128487 L 9.5115641 20.51451 L 11.761039 30.353703 L 8.3545288 32.090031 L 5.1412882 29.388904 L 5.59139 34.405135 C 5.59139 34.405135 2.0566309 36.077211 1.7352946 36.270138 C 1.413958 36.463064 7.0052572 44.437081 7.0052572 44.437081 L 11.118184 44.823104 L 12.146545 45.659229 L 11.118184 46.430758 L 6.9406616 45.659229 L 4.6271077 47.395557 L 0.64285482 45.594633 L 2.8918132 50.67546 L 0 53.56934 L 7.9690226 59.807202 L 6.3624023 62.958431 L 2.5709025 62.958431 L 5.7195475 66.62384 L 4.3056803 70.739351 L 13.560413 73.3764 L 17.095081 71.382723 L 17.994767 71.382723 L 17.737935 72.154252 L 13.88184 74.533952 L 13.496334 77.427832 L 9.768396 78.392114 L 14.074593 80.707218 L 14.074593 84.951921 C 14.074593 85.337771 24.421765 84.565898 24.421765 84.565898 L 24.87135 88.553251 L 21.722188 90.675085 L 26.863993 91.061108 L 27.76368 95.241215 L 36.953817 91.447131 L 38.110335 87.974475 L 39.010539 86.945597 L 39.331449 87.90988 L 37.982178 92.21866 L 39.203292 93.440291 L 39.331449 94.983866 C 39.331449 94.983866 37.468047 97.427817 37.275244 97.813668 C 37.082444 98.199518 42.545207 96.720194 42.545207 96.720194 L 44.666007 100.0001 L 52.184928 93.376213 C 52.184928 93.376213 55.01299 95.241041 55.077258 95.433968 C 55.141528 95.626896 54.498482 99.356726 54.498482 99.356726 L 58.547331 96.527441 L 62.146594 98.649276 L 66.51687 90.353658 L 64.974329 86.752327 L 65.359835 85.466101 L 66.388196 85.852124 L 67.673389 90.032231 C 67.673389 90.032231 70.372916 90.611007 70.565719 90.611007 C 70.758518 90.611007 70.82255 95.048462 70.82255 95.048462 L 74.228544 90.739681 L 77.891886 91.832638 L 78.59882 83.794368 L 79.627181 81.672017 L 83.033175 81.414669 L 84.897144 84.887325 L 86.182336 79.807015 L 90.488534 79.807015 L 88.303137 69.967822 L 84.961222 68.81027 L 84.447559 67.202616 L 85.989583 67.266695 L 89.7816 69.453125 L 90.359859 68.424247 C 90.359859 68.424247 91.966712 68.488843 92.416581 68.488843 C 92.866456 68.488843 94.601461 70.739351 94.601461 70.739351 L 94.280033 65.980469 L 98.200724 63.987309 C 98.200724 63.987309 92.930808 55.241073 92.738009 55.241073 C 92.545206 55.241073 95.822575 52.925968 95.822575 52.925968 L 99.228569 54.726892 L 97.300521 49.968009 L 100.0001 46.430758 L 92.673413 41.157694 L 88.17498 41.993819 L 87.403451 41.02902 L 88.046305 40.128817 L 91.645052 39.806873 L 94.151876 36.784318 L 97.814701 37.491768 L 94.280033 33.376257 L 95.951249 29.774927 L 85.732751 26.302271 L 86.246932 25.016044 L 86.311011 22.829614 L 90.617208 22.058085 L 85.732751 19.421037 L 86.246932 15.305526 L 76.221187 15.819706 L 74.742725 17.877979 L 74.100387 19.421037 L 72.750598 19.421037 L 72.365092 18.199406 L 73.457532 17.170528 L 75.963839 13.890625 L 75.256905 13.569198 L 75.128748 11.832869 L 78.149235 9.5177653 L 73.2007 9.5177653 L 71.850911 4.9516357 L 63.62454 8.9069499 L 61.953841 8.9069499 L 60.861401 6.9453125 L 60.668132 4.9516357 L 62.468022 2.5078573 L 58.868758 3.4726562 L 57.198059 3.4085775 L 55.270011 0 z M 50.000049 39.499915 A 10.5 10.5 0 0 1 60.500183 50.000049 A 10.5 10.5 0 0 1 50.000049 60.500183 A 10.5 10.5 0 0 1 39.499915 50.000049 A 10.5 10.5 0 0 1 50.000049 39.499915 z " />
  </g>
</svg>
