<?xml version="1.0" encoding="UTF-8" standalone="no"?>
<!-- Created with Inkscape (http://www.inkscape.org/) -->

<svg
   width="100mm"
   height="100mm"
   viewBox="0 0 100 100"
   version="1.1"
   id="svg135"
   inkscape:export-filename="saw5.svg"
   inkscape:export-xdpi="25.4"
   inkscape:export-ydpi="25.4"
   sodipodi:docname="saw6.svg"
   inkscape:version="1.2.1 (9c6d41e410, 2022-07-14, custom)"
   xmlns:inkscape="http://www.inkscape.org/namespaces/inkscape"
   xmlns:sodipodi="http://sodipodi.sourceforge.net/DTD/sodipodi-0.dtd"
   xmlns="http://www.w3.org/2000/svg"
   xmlns:svg="http://www.w3.org/2000/svg">
  <sodipodi:namedview
     id="namedview137"
     pagecolor="#ffffff"
     bordercolor="#666666"
     borderopacity="1.0"
     inkscape:showpageshadow="2"
     inkscape:pageopacity="0.0"
     inkscape:pagecheckerboard="0"
     inkscape:deskcolor="#d1d1d1"
     inkscape:document-units="mm"
     showgrid="false"
     inkscape:zoom="1.4340417"
     inkscape:cx="188.97638"
     inkscape:cy="188.97638"
     inkscape:window-width="1366"
     inkscape:window-height="717"
     inkscape:window-x="0"
     inkscape:window-y="27"
     inkscape:window-maximized="1"
     inkscape:current-layer="layer1" />
  <defs
     id="defs132" />
  <g
     inkscape:label="Layer 1"
     inkscape:groupmode="layer"
     id="layer1">
    <path
       d="m 49.999307,64.89349 c -8.225935,0 -14.892788,-6.668248 -14.892788,-14.894183 0,-8.224541 6.666853,-14.892789 14.892788,-14.892789 8.225935,0 14.894179,6.668248 14.894179,14.892789 0,8.225935 -6.668244,14.894183 -14.894179,14.894183 z M 94.74176,49.999307 c 0,-0.378974 -0.0042,-0.756551 -0.01394,-1.134131 C 99.811907,42.928404 100,35.106518 100,35.106518 97.731734,36.708792 95.463473,37.863823 93.299706,38.691432 91.167993,30.501722 86.773583,23.226005 80.825665,17.570675 80.222374,9.7780502 74.823407,4.1129669 74.823407,4.1129669 74.352477,6.8521586 73.565271,9.2722891 72.619233,11.388684 65.983035,7.4916748 58.251715,5.2568509 49.999307,5.2568509 c -0.378974,0 -0.757945,0.00557 -1.134131,0.013934 C 42.928404,0.18809302 35.106519,0 35.106519,0 36.708792,2.2682628 37.863823,4.5351318 38.691432,6.6988986 30.501722,8.8320129 23.226006,13.22503 17.569282,19.174343 9.7766573,19.777634 4.1129669,25.175207 4.1129669,25.175207 c 2.7377987,0.47093 5.1593222,1.258133 7.2757171,2.204172 -3.8970088,6.637593 -6.1318327,14.36752 -6.1318327,22.619928 0,0.380364 0.00418,0.757945 0.013934,1.135525 C 0.18670004,57.071604 0,64.89349 0,64.89349 2.2668694,63.291217 4.5351322,62.134792 6.6988986,61.308577 8.8320129,69.496893 13.22503,76.772611 19.174343,82.429332 c 0.601898,7.792627 6.000864,13.457709 6.000864,13.457709 0.47093,-2.739192 1.258134,-5.160716 2.204172,-7.275715 6.636201,3.897007 14.36752,6.130438 22.619928,6.130438 0.378974,0 0.757945,-0.0042 1.134131,-0.01394 C 57.07021,99.811907 64.893486,100 64.893486,100 63.289819,97.731738 62.134788,95.464871 61.308573,93.29971 69.496889,91.167989 76.772607,86.773579 82.429332,80.825657 90.221955,80.222366 95.885646,74.823399 95.885646,74.823399 93.147845,74.353863 90.726325,73.566661 88.609928,72.620623 92.506939,65.983027 94.74176,58.253101 94.74176,49.999299"
       style="fill:#000000;fill-opacity:1;fill-rule:nonzero;stroke:none;stroke-width:0.0139328"
       id="path26" />
  </g>
</svg>
